<?xml version="1.0" encoding="UTF-8" standalone="no"?>
<svg width="217px" height="41px" viewBox="0 0 217 41" version="1.1" xmlns="http://www.w3.org/2000/svg" xmlns:xlink="http://www.w3.org/1999/xlink" xmlns:sketch="http://www.bohemiancoding.com/sketch/ns">
    <!-- Generator: Sketch 3.3.2 (12043) - http://www.bohemiancoding.com/sketch -->
    <title>beatroot-logo</title>
    <desc>Created with Sketch.</desc>
    <defs></defs>
    <g id="Page-1" stroke="none" stroke-width="1" fill="none" fill-rule="evenodd" sketch:type="MSPage">
        <g id="beatroot-logo" sketch:type="MSLayerGroup" fill="#101212">
            <path d="M78.947,35.022 C73.565,35.022 69.202,30.659 69.202,25.277 C69.202,19.895 73.565,15.532 78.947,15.532 C84.328,15.532 88.692,19.895 88.692,25.277 C88.692,30.659 84.328,35.022 78.947,35.022 L78.947,35.022 Z M94.203,25.277 C94.203,16.851 87.373,10.02 78.947,10.02 C70.521,10.02 63.691,16.851 63.691,25.277 C63.691,33.703 70.521,40.533 78.947,40.533 C82.653,40.533 86.048,39.21 88.692,37.012 L88.692,39.973 L94.194,39.973 L94.194,25.455 C94.195,25.395 94.203,25.337 94.203,25.277 L94.203,25.277 Z" id="Fill-1" sketch:type="MSShapeGroup"></path>
            <path d="M15.263,15.532 C20.645,15.532 25.008,19.895 25.008,25.276 C25.008,30.659 20.645,35.021 15.263,35.021 C9.881,35.021 5.518,30.659 5.518,25.276 C5.518,19.895 9.881,15.532 15.263,15.532 L15.263,15.532 Z M0.006,25.276 C0.006,33.702 6.837,40.533 15.263,40.533 C23.689,40.533 30.519,33.702 30.519,25.276 C30.519,16.851 23.689,10.02 15.263,10.02 C11.557,10.02 8.161,11.343 5.518,13.541 L5.518,0.04 L0.016,0.04 L0.016,25.098 C0.015,25.158 0.006,25.216 0.006,25.276 L0.006,25.276 Z" id="Fill-2" sketch:type="MSShapeGroup"></path>
            <path d="M47.105,15.532 C51.586,15.532 55.352,18.561 56.489,22.682 L37.72,22.682 C38.858,18.561 42.623,15.532 47.105,15.532 L47.105,15.532 Z M53.404,32.694 C51.707,34.142 49.512,35.022 47.105,35.022 C42.557,35.022 38.747,31.901 37.673,27.688 L62.152,27.688 C62.278,26.9 62.361,26.099 62.361,25.277 C62.361,16.851 55.531,10.02 47.105,10.02 C38.679,10.02 31.848,16.851 31.848,25.277 C31.848,33.703 38.679,40.533 47.105,40.533 C52.837,40.533 57.825,37.368 60.432,32.694 L53.404,32.694 L53.404,32.694 Z" id="Fill-3" sketch:type="MSShapeGroup"></path>
            <path d="M111.301,34.342 C111.301,34.342 109.378,35.026 106.465,35.026 C104.307,35.026 101.799,32.95 101.799,30.019 L101.803,16.578 L111.301,16.578 L111.301,11.707 L101.813,11.707 L101.813,0.199 L96.296,0.199 L96.296,30.019 C96.296,36.189 101.224,40.53 106.465,40.53 C108.73,40.53 111.301,39.994 111.301,39.994 L111.301,34.342" id="Fill-4" sketch:type="MSShapeGroup"></path>
            <path d="M184.302,15.551 C178.902,15.551 174.524,19.929 174.524,25.33 C174.524,30.73 178.902,35.108 184.302,35.108 C189.703,35.108 194.081,30.73 194.081,25.33 C194.081,19.929 189.703,15.551 184.302,15.551 L184.302,15.551 Z M199.612,25.33 C199.612,33.785 192.758,40.639 184.302,40.639 C175.847,40.639 168.993,33.785 168.993,25.33 C168.993,16.875 175.847,10.02 184.302,10.02 C192.758,10.02 199.612,16.875 199.612,25.33 L199.612,25.33 Z" id="Fill-5" sketch:type="MSShapeGroup"></path>
            <path d="M150.381,10.091 L150.381,15.723 C141.093,16.309 133.21,22.05 129.554,30.119 C129.539,30.153 129.524,30.187 129.509,30.221 C129.329,30.621 129.16,31.027 129.002,31.438 C128.991,31.466 128.98,31.494 128.969,31.522 C128.894,31.718 128.823,31.916 128.753,32.114 C128.711,32.234 128.671,32.355 128.631,32.475 C128.538,32.753 128.45,33.032 128.368,33.313 C128.32,33.474 128.274,33.636 128.23,33.798 C128.187,33.956 128.144,34.114 128.104,34.273 C128.034,34.552 127.97,34.833 127.91,35.115 C127.881,35.252 127.853,35.39 127.826,35.528 C127.774,35.795 127.726,36.064 127.682,36.334 C127.664,36.453 127.645,36.573 127.628,36.693 C127.587,36.976 127.551,37.261 127.519,37.547 C127.508,37.649 127.497,37.75 127.487,37.852 C127.454,38.192 127.428,38.535 127.408,38.879 C127.405,38.952 127.402,39.962 127.398,40.034 L118.908,40.034 L118.908,16.649 L113.335,16.649 L113.335,11.758 L124.55,11.758 L124.55,27.521 C129.149,17.65 138.919,10.678 150.381,10.091" id="Fill-6" sketch:type="MSShapeGroup"></path>
            <path d="M153.515,10.115 L153.515,15.786 C154.084,15.878 154.637,16.02 155.168,16.207 C155.178,16.21 155.188,16.213 155.199,16.217 C155.312,16.257 155.425,16.301 155.536,16.345 C155.563,16.356 155.59,16.366 155.617,16.377 C155.721,16.419 155.824,16.464 155.926,16.51 C155.959,16.525 155.991,16.539 156.024,16.554 C156.122,16.6 156.22,16.647 156.317,16.696 C156.351,16.713 156.385,16.731 156.419,16.748 C156.514,16.798 156.609,16.848 156.702,16.901 C156.736,16.92 156.769,16.939 156.802,16.958 C156.895,17.012 156.988,17.067 157.079,17.124 C157.109,17.142 157.138,17.161 157.167,17.18 C157.261,17.24 157.355,17.301 157.447,17.364 C157.465,17.376 157.482,17.389 157.5,17.402 C157.83,17.632 158.145,17.88 158.443,18.148 L158.445,18.15 C158.522,18.219 158.596,18.29 158.67,18.361 C158.703,18.393 158.737,18.424 158.769,18.455 C158.835,18.52 158.898,18.586 158.962,18.652 C159.001,18.693 159.04,18.733 159.078,18.775 C159.137,18.838 159.195,18.903 159.252,18.968 C159.293,19.015 159.333,19.061 159.373,19.108 C159.427,19.172 159.48,19.237 159.533,19.302 C159.573,19.353 159.613,19.404 159.653,19.455 C159.703,19.52 159.752,19.584 159.799,19.65 C159.84,19.705 159.879,19.761 159.918,19.817 C159.963,19.881 160.008,19.946 160.052,20.011 C160.092,20.071 160.13,20.132 160.168,20.193 C160.209,20.257 160.25,20.321 160.289,20.386 C160.329,20.452 160.366,20.52 160.405,20.588 C160.44,20.649 160.476,20.71 160.509,20.772 C160.56,20.866 160.607,20.961 160.655,21.056 C160.691,21.129 160.727,21.203 160.761,21.277 C160.806,21.374 160.851,21.471 160.893,21.569 C160.917,21.625 160.939,21.683 160.962,21.739 C160.995,21.823 161.029,21.906 161.061,21.99 C161.083,22.051 161.104,22.113 161.126,22.174 C161.154,22.257 161.183,22.339 161.209,22.421 C161.229,22.485 161.248,22.549 161.267,22.612 C161.292,22.695 161.316,22.778 161.338,22.862 C161.355,22.927 161.372,22.992 161.388,23.057 C161.408,23.142 161.428,23.227 161.447,23.312 C161.461,23.378 161.474,23.443 161.487,23.508 C161.504,23.596 161.52,23.685 161.535,23.774 C161.545,23.838 161.556,23.902 161.566,23.966 C161.579,24.059 161.59,24.153 161.601,24.247 C161.608,24.309 161.616,24.37 161.622,24.432 C161.633,24.536 161.64,24.641 161.646,24.747 C161.65,24.799 161.655,24.85 161.657,24.903 C161.665,25.061 161.669,25.22 161.669,25.38 C161.669,26.722 161.397,28.001 160.905,29.164 C159.429,32.653 155.974,35.101 151.947,35.101 L151.942,35.101 C146.578,35.099 142.23,30.752 142.226,25.388 C142.226,25.385 142.225,25.382 142.225,25.38 L142.225,21.165 C140.144,22.23 138.262,23.629 136.646,25.288 L136.646,25.337 C136.646,33.788 143.497,40.639 151.948,40.639 C160.399,40.639 167.25,33.788 167.25,25.337 C167.25,17.415 161.23,10.9 153.515,10.115" id="Fill-7" sketch:type="MSShapeGroup"></path>
            <path d="M216.673,34.342 C216.673,34.342 214.75,35.026 211.837,35.026 C209.679,35.026 207.171,32.95 207.171,30.019 L207.175,16.578 L216.673,16.578 L216.673,11.707 L207.185,11.707 L207.185,0.199 L201.668,0.199 L201.668,30.019 C201.668,36.189 206.596,40.53 211.837,40.53 C214.102,40.53 216.673,39.994 216.673,39.994 L216.673,34.342" id="Fill-8" sketch:type="MSShapeGroup"></path>
        </g>
    </g>
</svg>